# xmcd
#
# Track frame offsets:
# 182
# 13157
# 28082
# 47357
# 63482
# 88157
# 103457
# 116882
# 141857
# 157382
# 169407
# 189257
# 197507
# 209182
# 225182
# 250832
# 269057
# 291707
# 305132
#
# Disc length: 4247 seconds
#
#
# Revision: 20
# Processed by: cddbd v1.5.2PL0 Copyright (c) Steve Scherf et al.
# Submitted via: FreeRIP 2.945 
#
DISCID=32109513
DTITLE=Don Kosaken Chor - Schwarze Augen
DYEAR=1966
DGENRE=Folklore
TTITLE0=Abendglocken
TTITLE1=Wolgaschlepper
TTITLE2=Eintönig klingt hell das Glöcklein
TTITLE3=Moskauer Nächte
TTITLE4=Das Leben für den Zaren
TTITLE5=Ich bete an der Macht der Liebe
TTITLE6=Abschied
TTITLE7=Stenka Rasin
TTITLE8=Der Kama-Fluß
TTITLE9=Reitermarsch
TTITLE10=Grünes Gras - Kalinka
TTITLE11=In der Schmiede
TTITLE12=Der Kuckuck
TTITLE13=Es wird im Wald erzählt
TTITLE14=Scharze Augen
TTITLE15=Beikalsee
TTITLE16=Kasbek
TTITLE17=Tschubariki Nachtigall
TTITLE18=Rette, o Gott, Dein Volk
EXTD=Leitung:\nSerge Jaroff
EXTT0=
EXTT1=
EXTT2=
EXTT3=
EXTT4=
EXTT5=
EXTT6=
EXTT7=
EXTT8=
EXTT9=
EXTT10=
EXTT11=
EXTT12=
EXTT13=
EXTT14=
EXTT15=
EXTT16=
EXTT17=
EXTT18=
PLAYORDER=
